<svg width="76" height="40" viewBox="0 0 76 40" fill="none" xmlns="http://www.w3.org/2000/svg">
<path d="M21.2209 1H1L27.1008 39H48.469L21.2209 1Z" fill="#FDBD04"/>
<path d="M54.6357 1L42.5891 23.3217L53.4884 39L75 1H54.6357Z" fill="#FDBD04"/>
<path d="M32.2636 3.12587H28.9651L27.3876 1H49.186L47.6085 3.12587H44.3101L46.3178 5.38462L39.1473 16.6783L30.2558 4.98601L32.2636 3.12587Z" fill="#FDBD04"/>
<path d="M21.2209 1H1L27.1008 39H48.469L21.2209 1Z" stroke="#FDBD04"/>
<path d="M54.6357 1L42.5891 23.3217L53.4884 39L75 1H54.6357Z" stroke="#FDBD04"/>
<path d="M32.2636 3.12587H28.9651L27.3876 1H49.186L47.6085 3.12587H44.3101L46.3178 5.38462L39.1473 16.6783L30.2558 4.98601L32.2636 3.12587Z" stroke="#FDBD04"/>
</svg>
